<svg xmlns="http://www.w3.org/2000/svg" viewBox="0 0 25 25"><path d="M12.1 18.6h1.3s.4 0 .6-.2c.2-.2.2-.6.2-.6s0-1.7.8-2c.8-.2 1.8 1.7 2.9 2.4.8.6 1.4.5 1.4.5h2.9s1.6-.1.8-1.3c0-.1-.4-.8-2.2-2.5s-1.6-1.4.6-4.3c1.2-1.7 1.7-2.8 1.6-3.3-.1-.5-1.1-.4-1.1-.4h-3.3s-.2 0-.4.1c-.1.1-.2.4-.2.4s-.5 1.3-1.2 2.5c-1.4 2.4-2 2.7-2.3 2.4-.6-.4-.4-1.4-.4-2.2 0-2.4.4-3.4-.7-3.6-.4-.1-.6-.1-1.6-.1-1.2 0-2.2 0-2.7.2-.2.2-.5.6-.3.6s.7.1 1 .5c.4.5.4 1.4.4 1.4s.2 2.8-.5 3.1c-.6.3-1.2-.2-2.4-2.5-.7-1.1-1.2-2.4-1.2-2.4l-.2-.2-.5-.3H2.2s-.5 0-.6.2c-.1.2 0 .6 0 .6s2.4 5.7 5.2 8.6c2.6 2.7 5.3 2.4 5.3 2.4z"/></svg>